# xmcd
#
# Track frame offsets:
#	150
#	16754
#	23875
#	35239
#	44199
#	49498
#	60373
#	64959
#	76579
#	86263
#	98648
#	103571
#	109482
#	113021
#
# Disc length: 1676 seconds
#
# Revision: 1
# Processed by: cddbd v1.5.2PL0 Copyright (c) Steve Scherf et al.
# Submitted via: audiograbber 1.83.01
#
DISCID=b2068a0e
DTITLE=Streetwalker - Revelling in the din of humanity
DYEAR=2010
DGENRE=Grindcore
TTITLE0=Scrawlings of a Whore
TTITLE1=We Can't Win
TTITLE2=Pride
TTITLE3=Repercussions
TTITLE4=Inside the Shell
TTITLE5=Invective
TTITLE6=Riddance
TTITLE7=Granite Pusher
TTITLE8=the Power of .Anesthesia
TTITLE9=Sterilizer
TTITLE10=My Cold Dead Hand
TTITLE11=Keep Your Eyes Open
TTITLE12=Introvert
TTITLE13=Learn to Crawl
EXTD=
EXTT0=
EXTT1=
EXTT2=
EXTT3=
EXTT4=
EXTT5=
EXTT6=
EXTT7=
EXTT8=
EXTT9=
EXTT10=
EXTT11=
EXTT12=
EXTT13=
PLAYORDER=
